<svg xmlns="http://www.w3.org/2000/svg" width="204" height="238" fill="none">
  <path fill="#08C136" d="M128.147 9.03507c1.807 4.61893 2.711 8.73583 2.711 12.35073 0 10.242-5.423 15.7647-16.267 16.568-4.217 0-8.535-1.1046-12.953-3.3136-2.0085-4.4182-3.0126-8.5351-3.0126-12.3507 0-10.6437 5.5226-16.06597 16.5676-16.26679 4.218 0 8.535 1.00412 12.954 3.01236Zm45.486 0c1.808 4.61893 2.711 8.73583 2.711 12.35073 0 10.242-5.422 15.7647-16.266 16.568-4.218 0-8.535-1.1046-12.954-3.3136-2.008-4.4182-3.012-8.5351-3.012-12.3507 0-10.6437 5.523-16.06597 16.568-16.26679 4.217 0 8.535 1.00412 12.953 3.01236ZM7.04946 162.063c0-11.045 1.6066-20.484 4.81974-28.316 3.4141-7.832 7.4305-13.857 12.0495-18.074 4.8198-4.218 9.3383-6.326 13.5557-6.326 3.414 0 6.2255 1.104 8.4346 3.313-3.6149 4.619-6.7276 10.745-9.3384 18.376-2.6107 7.43-3.916 16.166-3.916 26.207 0 16.267 5.5226 28.116 16.568 35.546 11.2461 7.632 27.4125 11.447 48.4991 11.447 25.7053 0 44.4823-4.418 56.3313-13.254 11.849-8.635 18.777-20.183 20.785-34.642-8.434 4.619-19.48 6.928-33.136 6.928-16.668 0-30.525-5.02-41.57-15.062-10.845-10.041-16.2672-23.195-16.2672-39.462 0-16.0656 5.0206-29.6212 15.0618-40.6666 10.0414-11.0453 22.9944-16.568 38.8594-16.568 18.476 0 33.237 7.9326 44.282 23.7977 11.246 15.6643 16.869 37.2529 16.869 64.7659 0 32.333-8.133 56.13-24.4 71.393-16.066 15.263-41.872 22.894-77.4178 22.894-30.927 0-53.7205-6.226-68.3807-18.677-14.4594-12.451-21.68904-30.324-21.68904-53.62Zm97.90154-53.017c0 16.869 12.351 25.705 37.052 26.508 13.054 0 23.999-2.309 32.835-6.928-.803-15.263-4.619-27.111-11.447-35.5459-6.828-8.6355-15.764-12.9532-26.81-12.9532-9.238 0-16.869 2.8115-22.894 8.4346-5.824 5.6231-8.736 12.4515-8.736 20.4845Z"/>
  <path fill="#08C136" d="M94 89.0121c0-12.325 10.031-22.3165 22.405-22.3165h39.209c12.374 0 22.405 9.9915 22.405 22.3165v39.0539c0 12.325-10.031 22.316-22.405 22.316h-39.209c-12.374 0-22.405-9.991-22.405-22.316V89.0121Z"/>
  <path fill="#fff" fill-rule="evenodd" d="M113.044 87.8144c0-3.2482 2.249-5.8813 5.024-5.8813h35.883c2.774 0 5.024 2.6331 5.024 5.8813s-2.25 5.8813-5.024 5.8813h-35.883c-2.775 0-5.024-2.6331-5.024-5.8813ZM109.123 108.539c0-3.248 2.634-5.881 5.882-5.881h42.009c3.248 0 5.881 2.633 5.881 5.881s-2.633 5.881-5.881 5.881h-42.009c-3.248 0-5.882-2.633-5.882-5.881ZM113.044 129.264c0-3.248 2.249-5.882 5.024-5.882h35.883c2.774 0 5.024 2.634 5.024 5.882 0 3.248-2.25 5.881-5.024 5.881h-35.883c-2.775 0-5.024-2.633-5.024-5.881Z" clip-rule="evenodd"/>
</svg>
